Coordinates
version=1
nRows=7
nColumns=40
inDegrees=yes

Units are S.I. units (second, meters, Newtons, ...)
Angles are in degrees.

endheader
time	pelvis_tilt	pelvis_list	pelvis_rotation	pelvis_tx	pelvis_ty	pelvis_tz	hip_flexion_r	hip_adduction_r	hip_rotation_r	knee_angle_r	knee_angle_r_beta	ankle_angle_r	subtalar_angle_r	mtp_angle_r	hip_flexion_l	hip_adduction_l	hip_rotation_l	knee_angle_l	knee_angle_l_beta	ankle_angle_l	subtalar_angle_l	mtp_angle_l	lumbar_extension	lumbar_bending	lumbar_rotation	arm_flex_r	arm_add_r	arm_rot_r	elbow_flex_r	pro_sup_r	wrist_flex_r	wrist_dev_r	arm_flex_l	arm_add_l	arm_rot_l	elbow_flex_l	pro_sup_l	wrist_flex_l	wrist_dev_l
     34.24000000	     -5.32760315	     -6.12593107	      3.38340204	      1.03615518	      0.92758141	      0.51312938	     15.68493273	      3.68885536	    -18.06766224	     18.57732516	     18.57732516	     10.97435682	      2.66278101	     -1.80809818	     36.47247198	    -15.02943080	      2.33888293	     68.97651791	     68.97651791	     11.19405910	    -18.97180076	     14.24148143	    -13.30813664	      7.09253279	      5.19487025	      7.91141016	    -15.46615688	     -2.54978412	     37.76246069	     45.12641433	      0.00000000	      0.00000000	      4.31835155	    -10.61133580	     -1.23673770	     68.36913415	     46.08163931	      0.00000000	      0.00000000
     34.25178571	     -5.33539825	     -6.08475842	      3.50822991	      1.03417791	      0.92785400	      0.51368753	     14.97828424	      3.77957224	    -18.16365481	     18.12626739	     18.12626739	     11.25284024	      2.93272071	     -2.06699548	     37.98021266	    -14.86974600	      2.40532498	     67.47172589	     67.47172589	     11.44737876	    -19.00209198	     15.17617741	    -13.28027664	      7.02185324	      5.24867150	     10.63815727	    -15.68231786	     -2.40389576	     38.65100932	     45.13388600	      0.00000000	      0.00000000	      3.11762529	    -10.24161941	     -1.35048960	     64.22835086	     46.10023508	      0.00000000	      0.00000000
     34.26357143	     -5.27902613	     -6.07944142	      3.62957139	      1.03230863	      0.92814897	      0.51431539	     14.15665704	      3.97298356	    -18.10941733	     17.55858459	     17.55858459	     11.52579442	      2.98073923	     -2.14189419	     39.20286351	    -14.76336896	      2.41887653	     65.64935056	     65.64935056	     11.37056574	    -19.04748331	     15.51107831	    -13.37056852	      6.97246304	      5.01148505	     13.39622396	    -15.71214548	     -2.42985694	     40.07995211	     45.10700498	      0.00000000	      0.00000000	      1.37756323	    -10.26422630	     -1.16642936	     61.44871156	     46.05732211	      0.00000000	      0.00000000
     34.27535714	     -5.26843873	     -6.08775187	      3.70191759	      1.03047986	      0.92829440	      0.51485859	     13.41044676	      4.16723415	    -18.03006440	     17.01921824	     17.01921824	     11.65750471	      3.01288490	     -2.61865152	     40.29760919	    -14.62268582	      2.44337121	     63.61759735	     63.61759735	     11.36733249	    -19.06309929	     16.20603629	    -13.34252647	      6.97694553	      5.48976443	     15.82651981	    -16.21438968	     -1.70306268	     41.00119117	     45.08183364	      0.00000000	      0.00000000	      1.14360211	     -9.42565084	     -1.81700140	     55.64790453	     46.10910655	      0.00000000	      0.00000000
     34.28714286	     -5.22317076	     -6.12126200	      3.76733917	      1.02879386	      0.92839615	      0.51539050	     12.61524152	      4.39656638	    -17.93426438	     16.45535904	     16.45535904	     11.80204500	      3.04761310	     -2.99531556	     41.16515889	    -14.48879889	      2.46983112	     61.33352717	     61.33352717	     11.20345615	    -19.06132603	     16.73848878	    -13.39244815	      6.99318775	      5.65829357	     18.30207912	    -16.48449581	     -1.21023685	     42.37285739	     45.05392862	      0.00000000	      0.00000000	      0.29230082	     -9.00106508	     -2.22345989	     51.38179737	     46.15124393	      0.00000000	      0.00000000
     34.29892857	     -5.15143067	     -6.17510454	      3.81160197	      1.02721948	      0.92840974	      0.51585287	     11.78724428	      4.64617257	    -17.83647274	     15.89453310	     15.89453310	     12.04398253	      3.14831833	     -3.10951353	     41.81626307	    -14.33175142	      2.53057428	     58.81123921	     58.81123921	     10.92960675	    -19.03430924	     17.09210235	    -13.49427860	      7.01172817	      5.55578098	     20.90045722	    -16.41462373	     -1.17035317	     43.84782392	     45.02329101	      0.00000000	      0.00000000	     -1.22610983	     -8.95217239	     -2.19425583	     48.76004102	     46.12351368	      0.00000000	      0.00000000
     34.31071429	     -5.12896754	     -6.21429284	      3.79795057	      1.02573648	      0.92831096	      0.51621010	     11.02205802	      4.86229186	    -17.71472915	     15.35633569	     15.35633569	     12.13530724	      3.24876716	     -3.56754672	     42.30383480	    -14.13465323	      2.57858063	     56.03474184	     56.03474184	     10.48931285	    -18.95635427	     17.07662946	    -13.46967044	      7.02611305	      6.08753251	     23.10098120	    -16.80698369	     -0.45576818	     45.18352008	     44.98656407	      0.00000000	      0.00000000	     -1.43754121	     -8.37404505	     -2.84677990	     43.49613778	     46.17638071	      0.00000000	      0.00000000
